# Blender 4.4.0
# www.blender.org
mtllib jajkoehirmowizemlyn.mtl
o Cylinder
v -0.394018 0.531752 -0.943525
v 0.394018 0.531752 -0.943525
v -0.394018 0.411182 -0.980218
v 0.394018 0.411182 -0.980217
v -0.394018 0.286653 -1.007470
v 0.394018 0.286653 -1.007470
v -0.394018 0.159362 -1.025020
v 0.394018 0.159363 -1.025020
v -0.394018 0.030537 -1.032699
v 0.394018 0.030538 -1.032698
v -0.394018 -0.098582 -1.030432
v 0.394018 -0.098582 -1.030431
v -0.394018 -0.226751 -1.018241
v 0.394018 -0.226751 -1.018241
v -0.394018 -0.352737 -0.996244
v 0.394018 -0.352737 -0.996244
v -0.394018 -0.475326 -0.964653
v 0.394018 -0.475326 -0.964653
v -0.394018 -0.593337 -0.923772
v 0.394018 -0.593337 -0.923771
v -0.394018 -0.705634 -0.873994
v 0.394018 -0.705634 -0.873994
v -0.394018 -0.811136 -0.815799
v 0.394018 -0.811136 -0.815799
v -0.394018 -0.908826 -0.749748
v 0.394018 -0.908825 -0.749747
v -0.394018 -0.997763 -0.676476
v 0.394018 -0.997763 -0.676475
v -0.394018 -1.077091 -0.596689
v 0.394018 -1.077091 -0.596689
v -0.394018 -1.146046 -0.511156
v 0.394018 -1.146046 -0.511156
v -0.394018 -1.203965 -0.420700
v 0.394018 -1.203965 -0.420700
v -0.394018 -1.250288 -0.326193
v 0.394018 -1.250288 -0.326192
v -0.394018 -1.284570 -0.228544
v 0.394018 -1.284570 -0.228544
v -0.394018 -1.306482 -0.128694
v 0.394018 -1.306482 -0.128694
v -0.394018 -1.315811 -0.027605
v 0.394018 -1.315811 -0.027604
v -0.394018 -1.312468 0.073750
v 0.394018 -1.312468 0.073751
v -0.394018 -1.296485 0.174395
v 0.394018 -1.296485 0.174395
v -0.394018 -1.268017 0.273360
v 0.394018 -1.268017 0.273361
v -0.394018 -1.227337 0.369693
v 0.394018 -1.227337 0.369693
v -0.394018 -1.174837 0.462465
v 0.394018 -1.174837 0.462466
v -0.394018 -1.111022 0.550784
v 0.394018 -1.111022 0.550784
v -0.394018 -1.036508 0.633798
v 0.394018 -1.036508 0.633798
v -0.394018 -0.952012 0.710708
v 0.394018 -0.952012 0.710709
v -0.394018 -0.858347 0.780774
v 0.394018 -0.858347 0.780775
v -0.394018 -0.756416 0.843320
v 0.394018 -0.756416 0.843321
v -0.394018 -0.647201 0.897746
v 0.394018 -0.647200 0.897746
v -0.394018 -0.531752 0.943525
v 0.394018 -0.531752 0.943525
v -0.394018 -0.411182 0.980217
v 0.394018 -0.411182 0.980217
v -0.394018 -0.286653 1.007470
v 0.394018 -0.286652 1.007470
v -0.394018 -0.159362 1.025020
v 0.394018 -0.159362 1.025020
v -0.394018 -0.030537 1.032698
v 0.394018 -0.030537 1.032698
v -0.394018 0.098582 1.030431
v 0.394018 0.098582 1.030431
v -0.394018 0.226751 1.018240
v 0.394018 0.226752 1.018240
v -0.394018 0.352737 0.996244
v 0.394018 0.352738 0.996244
v -0.394018 0.475326 0.964652
v 0.394018 0.475326 0.964653
v -0.394018 0.593337 0.923771
v 0.394018 0.593338 0.923772
v -0.394018 0.705634 0.873993
v 0.394018 0.705635 0.873994
v -0.394018 0.811136 0.815798
v 0.394018 0.811136 0.815799
v -0.394018 0.908826 0.749747
v 0.394018 0.908826 0.749748
v -0.394018 0.997763 0.676475
v 0.394018 0.997763 0.676476
v -0.394018 1.077091 0.596689
v 0.394018 1.077091 0.596689
v -0.394018 1.146047 0.511155
v 0.394018 1.146046 0.511156
v -0.394018 1.203965 0.420700
v 0.394018 1.203965 0.420700
v -0.394018 1.250288 0.326192
v 0.394018 1.250288 0.326192
v -0.394018 1.284571 0.228543
v 0.394018 1.284571 0.228544
v -0.394018 1.306482 0.128694
v 0.394018 1.306482 0.128694
v -0.394018 1.315811 0.027604
v 0.394018 1.315811 0.027605
v -0.394018 1.312468 -0.073751
v 0.394018 1.312469 -0.073750
v -0.394018 1.296486 -0.174396
v 0.394018 1.296486 -0.174395
v -0.394018 1.268017 -0.273361
v 0.394018 1.268017 -0.273361
v -0.394018 1.227337 -0.369693
v 0.394018 1.227337 -0.369693
v -0.394018 1.174837 -0.462466
v 0.394018 1.174837 -0.462465
v -0.394018 1.111023 -0.550784
v 0.394018 1.111023 -0.550784
v -0.394018 1.036508 -0.633798
v 0.394018 1.036508 -0.633798
v -0.394018 0.952012 -0.710709
v 0.394018 0.952012 -0.710708
v -0.394018 0.858348 -0.780775
v 0.394018 0.858348 -0.780774
v -0.394018 0.756416 -0.843321
v 0.394018 0.756416 -0.843321
v -0.394018 0.647201 -0.897746
v 0.394018 0.647201 -0.897746
v -0.391896 0.528888 -0.938443
v -0.391896 0.408967 -0.974938
v 0.391896 0.408968 -0.974937
v 0.391896 0.528888 -0.938443
v -0.391896 0.285109 -1.002043
v 0.391896 0.285109 -1.002043
v -0.391896 0.158504 -1.019499
v 0.391896 0.158504 -1.019499
v -0.391896 0.030373 -1.027136
v 0.391896 0.030373 -1.027135
v -0.391896 -0.098051 -1.024881
v 0.391896 -0.098050 -1.024881
v -0.391896 -0.225530 -1.012756
v 0.391896 -0.225530 -1.012756
v -0.391896 -0.350837 -0.990878
v 0.391896 -0.350837 -0.990878
v -0.391896 -0.472766 -0.959457
v 0.391896 -0.472766 -0.959456
v -0.391896 -0.590141 -0.918796
v 0.391896 -0.590141 -0.918795
v -0.391896 -0.701833 -0.869286
v 0.391896 -0.701833 -0.869286
v -0.391896 -0.806766 -0.811405
v 0.391896 -0.806766 -0.811404
v -0.391896 -0.903930 -0.745709
v 0.391896 -0.903930 -0.745709
v -0.391896 -0.992389 -0.672832
v 0.391896 -0.992388 -0.672832
v -0.391896 -1.071289 -0.593475
v 0.391896 -1.071289 -0.593475
v -0.391896 -1.139873 -0.508403
v 0.391896 -1.139873 -0.508402
v -0.391896 -1.197480 -0.418434
v 0.391896 -1.197479 -0.418434
v -0.391896 -1.243553 -0.324436
v 0.391896 -1.243553 -0.324435
v -0.391896 -1.277651 -0.227313
v 0.391896 -1.277651 -0.227312
v -0.391896 -1.299444 -0.128001
v 0.391896 -1.299444 -0.128001
v -0.391896 -1.308723 -0.027456
v 0.391896 -1.308723 -0.027456
v -0.391896 -1.305398 0.073353
v 0.391896 -1.305398 0.073353
v -0.391896 -1.289502 0.173455
v 0.391896 -1.289502 0.173456
v -0.391896 -1.261187 0.271888
v 0.391896 -1.261187 0.271888
v -0.391896 -1.220726 0.367701
v 0.391896 -1.220726 0.367702
v -0.391896 -1.168509 0.459974
v 0.391896 -1.168509 0.459975
v -0.391896 -1.105038 0.547817
v 0.391896 -1.105038 0.547817
v -0.391896 -1.030925 0.630384
v 0.391896 -1.030925 0.630384
v -0.391896 -0.946884 0.706880
v 0.391896 -0.946884 0.706880
v -0.391896 -0.853724 0.776569
v 0.391896 -0.853724 0.776569
v -0.391896 -0.752342 0.838778
v 0.391896 -0.752342 0.838778
v -0.391896 -0.643714 0.892910
v 0.391896 -0.643714 0.892910
v -0.391896 -0.528888 0.938442
v 0.391896 -0.528888 0.938443
v -0.391896 -0.408967 0.974937
v 0.391896 -0.408967 0.974937
v -0.391896 -0.285109 1.002043
v 0.391896 -0.285108 1.002043
v -0.391896 -0.158504 1.019498
v 0.391896 -0.158504 1.019499
v -0.391896 -0.030373 1.027135
v 0.391896 -0.030373 1.027135
v -0.391896 0.098051 1.024881
v 0.391896 0.098051 1.024881
v -0.391896 0.225530 1.012756
v 0.391896 0.225530 1.012756
v -0.391896 0.350837 0.990877
v 0.391896 0.350838 0.990878
v -0.391896 0.472766 0.959456
v 0.391896 0.472766 0.959457
v -0.391896 0.590141 0.918795
v 0.391896 0.590141 0.918796
v -0.391896 0.701834 0.869286
v 0.391896 0.701834 0.869286
v -0.391896 0.806767 0.811404
v 0.391896 0.806767 0.811405
v -0.391896 0.903930 0.745708
v 0.391896 0.903930 0.745709
v -0.391896 0.992389 0.672831
v 0.391896 0.992389 0.672832
v -0.391896 1.071289 0.593474
v 0.391896 1.071289 0.593475
v -0.391896 1.139873 0.508402
v 0.391896 1.139873 0.508402
v -0.391896 1.197479 0.418433
v 0.391896 1.197479 0.418434
v -0.391896 1.243553 0.324435
v 0.391896 1.243553 0.324435
v -0.391896 1.277651 0.227312
v 0.391896 1.277651 0.227313
v -0.391896 1.299445 0.128000
v 0.391896 1.299445 0.128001
v -0.391896 1.308723 0.027456
v 0.391896 1.308723 0.027456
v -0.391896 1.305398 -0.073353
v 0.391896 1.305399 -0.073353
v -0.391896 1.289502 -0.173456
v 0.391896 1.289502 -0.173456
v -0.391896 1.261187 -0.271888
v 0.391896 1.261187 -0.271888
v -0.391896 1.220726 -0.367702
v 0.391896 1.220726 -0.367702
v -0.391896 1.168509 -0.459975
v 0.391896 1.168509 -0.459974
v -0.391896 1.105038 -0.547818
v 0.391896 1.105038 -0.547817
v -0.391896 1.030925 -0.630384
v 0.391896 1.030925 -0.630384
v -0.391896 0.946884 -0.706881
v 0.391896 0.946884 -0.706880
v -0.391896 0.853724 -0.776569
v 0.391896 0.853724 -0.776569
v -0.391896 0.752342 -0.838779
v 0.391896 0.752342 -0.838778
v -0.391896 0.643715 -0.892910
v 0.391896 0.643715 -0.892910
vn -0.0000 -0.3302 0.9439
vn -0.0000 -0.2527 0.9676
vn -0.0000 -0.1753 0.9845
vn -0.0000 -0.0981 0.9952
vn -0.0000 -0.0210 0.9998
vn -0.0000 0.0562 0.9984
vn -0.0000 0.1334 0.9911
vn -0.0000 0.2109 0.9775
vn -0.0000 0.2887 0.9574
vn -0.0000 0.3666 0.9304
vn -0.0000 0.4445 0.8958
vn -0.0000 0.5221 0.8529
vn -0.0000 0.5987 0.8010
vn -0.0000 0.6733 0.7393
vn -0.0000 0.7448 0.6672
vn -0.0000 0.8115 0.5843
vn -0.0000 0.8715 0.4905
vn -0.0000 0.9223 0.3864
vn -0.0000 0.9619 0.2733
vn -0.0000 0.9882 0.1534
vn -0.0000 0.9996 0.0295
vn -0.0000 0.9955 -0.0951
vn -0.0000 0.9762 -0.2171
vn -0.0000 0.9428 -0.3333
vn -0.0000 0.8973 -0.4415
vn -0.0000 0.8417 -0.5399
vn -0.0000 0.7785 -0.6277
vn -0.0000 0.7096 -0.7046
vn -0.0000 0.6368 -0.7710
vn -0.0000 0.5616 -0.8274
vn -0.0000 0.4850 -0.8745
vn -0.0000 0.4077 -0.9131
vn -0.0000 0.3302 -0.9439
vn -0.0000 0.2527 -0.9676
vn -0.0000 0.1753 -0.9845
vn -0.0000 0.0981 -0.9952
vn -0.0000 0.0210 -0.9998
vn -0.0000 -0.0562 -0.9984
vn -0.0000 -0.1334 -0.9911
vn -0.0000 -0.2109 -0.9775
vn -0.0000 -0.2887 -0.9574
vn -0.0000 -0.3666 -0.9304
vn -0.0000 -0.4445 -0.8958
vn -0.0000 -0.5221 -0.8529
vn -0.0000 -0.5987 -0.8010
vn -0.0000 -0.6733 -0.7393
vn -0.0000 -0.7448 -0.6672
vn -0.0000 -0.8115 -0.5843
vn -0.0000 -0.8715 -0.4905
vn -0.0000 -0.9223 -0.3864
vn -0.0000 -0.9619 -0.2733
vn -0.0000 -0.9882 -0.1534
vn -0.0000 -0.9996 -0.0295
vn -0.0000 -0.9955 0.0951
vn -0.0000 -0.9762 0.2171
vn -0.0000 -0.9428 0.3333
vn -0.0000 -0.8973 0.4415
vn -0.0000 -0.8417 0.5399
vn -0.0000 -0.7785 0.6277
vn -0.0000 -0.7096 0.7046
vn -0.0000 -0.6368 0.7710
vn -0.0000 -0.5616 0.8274
vn -0.0000 -0.4850 0.8745
vn -0.0000 -0.4077 0.9131
vn -0.0000 -0.9762 0.2170
vn -0.0000 0.9762 -0.2170
vn -0.9399 -0.1408 0.3110
vn -0.9381 -0.1158 0.3265
vn -0.9379 -0.1130 0.3280
vn -0.9397 -0.1377 0.3132
vn -0.9503 -0.2334 -0.2062
vn -0.9524 -0.2487 -0.1765
vn -0.9521 -0.2468 -0.1805
vn -0.9500 -0.2310 -0.2102
vn 0.9569 0.2796 0.0783
vn 0.9558 0.2719 0.1123
vn 0.9556 0.2711 0.1153
vn 0.9569 0.2792 0.0806
vn 0.9366 -0.0897 0.3388
vn 0.9381 -0.1158 0.3265
vn 0.9379 -0.1130 0.3280
vn 0.9364 -0.0874 0.3398
vn 0.9542 -0.2616 -0.1451
vn 0.9524 -0.2487 -0.1765
vn 0.9521 -0.2468 -0.1805
vn 0.9540 -0.2602 -0.1488
vn -0.9558 0.2719 0.1123
vn -0.9569 0.2796 0.0783
vn -0.9569 0.2792 0.0806
vn -0.9556 0.2711 0.1153
vn -0.9366 -0.0897 0.3388
vn -0.9364 -0.0874 0.3398
vn -0.9542 -0.2616 -0.1451
vn -0.9540 -0.2602 -0.1488
vn 0.9577 0.2845 0.0436
vn 0.9577 0.2844 0.0448
vn 0.9354 -0.0628 0.3480
vn 0.9353 -0.0611 0.3484
vn 0.9558 -0.2719 -0.1123
vn 0.9556 -0.2711 -0.1153
vn -0.9577 0.2845 0.0436
vn -0.9577 0.2844 0.0448
vn -0.9354 -0.0628 0.3480
vn -0.9353 -0.0611 0.3484
vn -0.9558 -0.2719 -0.1123
vn -0.9556 -0.2711 -0.1153
vn 0.9580 0.2867 0.0084
vn 0.9580 0.2867 0.0086
vn 0.9366 0.0897 -0.3388
vn 0.9381 0.1158 -0.3265
vn 0.9379 0.1130 -0.3280
vn 0.9364 0.0874 -0.3398
vn 0.9347 -0.0354 0.3538
vn 0.9346 -0.0344 0.3539
vn 0.9569 -0.2796 -0.0783
vn 0.9569 -0.2792 -0.0806
vn -0.9580 0.2867 0.0084
vn -0.9580 0.2867 0.0086
vn -0.9381 0.1158 -0.3265
vn -0.9366 0.0897 -0.3388
vn -0.9364 0.0874 -0.3398
vn -0.9379 0.1130 -0.3280
vn -0.9347 -0.0353 0.3538
vn -0.9346 -0.0344 0.3539
vn -0.9569 -0.2796 -0.0783
vn -0.9569 -0.2792 -0.0806
vn 0.9578 0.2860 -0.0269
vn 0.9578 0.2860 -0.0278
vn 0.9344 -0.0076 0.3563
vn 0.9344 -0.0074 0.3563
vn 0.9577 -0.2845 -0.0436
vn 0.9577 -0.2844 -0.0448
vn -0.9578 0.2860 -0.0269
vn -0.9578 0.2860 -0.0278
vn 0.9354 0.0628 -0.3480
vn 0.9353 0.0611 -0.3484
vn -0.9344 -0.0076 0.3563
vn -0.9344 -0.0074 0.3563
vn -0.9577 -0.2845 -0.0436
vn -0.9577 -0.2844 -0.0448
vn -0.9354 0.0628 -0.3480
vn -0.9353 0.0611 -0.3484
vn 0.9572 0.2826 -0.0619
vn 0.9572 0.2823 -0.0638
vn 0.9345 0.0203 0.3554
vn 0.9345 0.0196 0.3555
vn 0.9580 -0.2867 -0.0084
vn 0.9580 -0.2867 -0.0086
vn -0.9572 0.2826 -0.0619
vn -0.9572 0.2823 -0.0638
vn 0.9347 0.0353 -0.3538
vn 0.9346 0.0344 -0.3539
vn -0.9345 0.0203 0.3554
vn -0.9345 0.0196 0.3555
vn -0.9580 -0.2867 -0.0084
vn -0.9580 -0.2867 -0.0086
vn -0.9347 0.0354 -0.3538
vn -0.9346 0.0344 -0.3539
vn 0.9562 0.2764 -0.0963
vn 0.9561 0.2757 -0.0991
vn 0.9351 0.0480 0.3512
vn 0.9350 0.0465 0.3515
vn 0.9578 -0.2860 0.0269
vn 0.9578 -0.2860 0.0278
vn -0.9562 0.2764 -0.0963
vn -0.9561 0.2757 -0.0991
vn 0.9344 0.0076 -0.3563
vn 0.9344 0.0074 -0.3563
vn -0.9351 0.0480 0.3512
vn -0.9350 0.0465 0.3515
vn -0.9578 -0.2860 0.0269
vn -0.9578 -0.2860 0.0278
vn -0.9344 0.0076 -0.3563
vn -0.9344 0.0074 -0.3563
vn 0.9548 0.2675 -0.1297
vn 0.9546 0.2664 -0.1332
vn 0.9361 0.0753 0.3436
vn 0.9360 0.0731 0.3443
vn 0.9572 -0.2826 0.0619
vn 0.9572 -0.2823 0.0638
vn -0.9548 0.2674 -0.1297
vn -0.9546 0.2664 -0.1332
vn 0.9345 -0.0203 -0.3554
vn 0.9345 -0.0196 -0.3554
vn -0.9361 0.0753 0.3436
vn -0.9360 0.0731 0.3443
vn -0.9572 -0.2826 0.0619
vn -0.9572 -0.2823 0.0638
vn -0.9345 -0.0203 -0.3554
vn -0.9345 -0.0196 -0.3555
vn 0.9531 0.2559 -0.1618
vn 0.9528 0.2543 -0.1657
vn 0.9375 0.1018 0.3328
vn 0.9373 0.0991 0.3340
vn 0.9562 -0.2764 0.0963
vn 0.9561 -0.2757 0.0991
vn -0.9531 0.2559 -0.1618
vn -0.9528 0.2543 -0.1657
vn 0.9351 -0.0480 -0.3512
vn 0.9350 -0.0465 -0.3515
vn -0.9375 0.1018 0.3328
vn -0.9373 0.0991 0.3340
vn -0.9562 -0.2764 0.0963
vn -0.9561 -0.2757 0.0991
vn -0.9351 -0.0480 -0.3512
vn -0.9350 -0.0465 -0.3515
vn 0.9510 0.2419 -0.1923
vn 0.9507 0.2398 -0.1964
vn 0.9392 0.1274 0.3188
vn 0.9390 0.1244 0.3206
vn 0.9548 -0.2674 0.1297
vn 0.9546 -0.2664 0.1332
vn -0.9510 0.2419 -0.1923
vn -0.9507 0.2398 -0.1964
vn 0.9361 -0.0753 -0.3436
vn 0.9360 -0.0731 -0.3443
vn -0.9392 0.1274 0.3188
vn -0.9390 0.1244 0.3206
vn -0.9548 -0.2675 0.1297
vn -0.9546 -0.2664 0.1332
vn -0.9361 -0.0753 -0.3436
vn -0.9360 -0.0731 -0.3443
vn 0.9488 0.2256 -0.2209
vn 0.9485 0.2230 -0.2249
vn 0.9412 0.1519 0.3017
vn 0.9409 0.1486 0.3042
vn 0.9531 -0.2559 0.1618
vn 0.9528 -0.2543 0.1657
vn -0.9488 0.2256 -0.2209
vn -0.9485 0.2230 -0.2250
vn 0.9375 -0.1018 -0.3328
vn 0.9373 -0.0991 -0.3340
vn -0.9412 0.1519 0.3017
vn -0.9409 0.1486 0.3042
vn -0.9531 -0.2559 0.1618
vn -0.9528 -0.2543 0.1657
vn -0.9375 -0.1018 -0.3328
vn -0.9373 -0.0991 -0.3340
vn 0.9465 0.2071 -0.2473
vn 0.9462 0.2042 -0.2511
vn 0.9434 0.1749 0.2817
vn 0.9431 0.1716 0.2848
vn 0.9510 -0.2419 0.1923
vn 0.9507 -0.2398 0.1964
vn -0.9465 0.2072 -0.2473
vn -0.9462 0.2042 -0.2511
vn 0.9392 -0.1274 -0.3188
vn 0.9390 -0.1244 -0.3206
vn -0.9434 0.1749 0.2817
vn -0.9431 0.1716 0.2848
vn -0.9510 -0.2419 0.1923
vn -0.9507 -0.2398 0.1964
vn -0.9392 -0.1274 -0.3188
vn -0.9390 -0.1244 -0.3206
vn 0.9442 0.1867 -0.2712
vn 0.9439 0.1835 -0.2746
vn 0.9457 0.1963 0.2590
vn 0.9454 0.1932 0.2626
vn 0.9488 -0.2256 0.2209
vn 0.9485 -0.2230 0.2250
vn -0.9442 0.1867 -0.2712
vn -0.9439 0.1835 -0.2746
vn 0.9412 -0.1519 -0.3017
vn 0.9409 -0.1486 -0.3042
vn -0.9457 0.1963 0.2590
vn -0.9454 0.1932 0.2626
vn -0.9488 -0.2256 0.2209
vn -0.9485 -0.2230 0.2249
vn -0.9412 -0.1519 -0.3017
vn -0.9409 -0.1486 -0.3042
vn 0.9420 0.1645 -0.2925
vn 0.9417 0.1613 -0.2953
vn 0.9480 0.2159 0.2337
vn 0.9477 0.2131 0.2377
vn 0.9465 -0.2072 0.2473
vn 0.9462 -0.2042 0.2511
vn -0.9420 0.1645 -0.2925
vn -0.9417 0.1613 -0.2953
vn 0.9434 -0.1749 -0.2817
vn 0.9431 -0.1716 -0.2848
vn -0.9480 0.2159 0.2337
vn -0.9477 0.2131 0.2377
vn -0.9465 -0.2071 0.2473
vn -0.9462 -0.2042 0.2511
vn -0.9434 -0.1749 -0.2817
vn -0.9431 -0.1716 -0.2848
vn 0.9399 0.1408 -0.3110
vn 0.9397 0.1377 -0.3132
vn 0.9503 0.2334 0.2062
vn 0.9500 0.2310 0.2102
vn 0.9442 -0.1867 0.2712
vn 0.9439 -0.1835 0.2746
vn -0.9399 0.1408 -0.3110
vn -0.9397 0.1377 -0.3132
vn 0.9457 -0.1963 -0.2590
vn 0.9454 -0.1932 -0.2626
vn -0.9503 0.2334 0.2061
vn -0.9500 0.2310 0.2102
vn -0.9442 -0.1867 0.2712
vn -0.9439 -0.1835 0.2746
vn -0.9457 -0.1963 -0.2590
vn -0.9454 -0.1932 -0.2626
vn 0.9524 0.2487 0.1765
vn 0.9521 0.2468 0.1805
vn 0.9420 -0.1645 0.2925
vn 0.9417 -0.1613 0.2953
vn 0.9480 -0.2159 -0.2337
vn 0.9477 -0.2131 -0.2377
vn -0.9524 0.2487 0.1765
vn -0.9521 0.2468 0.1805
vn -0.9420 -0.1645 0.2925
vn -0.9417 -0.1613 0.2953
vn -0.9480 -0.2159 -0.2337
vn -0.9477 -0.2131 -0.2377
vn 0.9542 0.2616 0.1451
vn 0.9540 0.2602 0.1488
vn 0.9399 -0.1408 0.3110
vn 0.9397 -0.1377 0.3132
vn 0.9503 -0.2334 -0.2061
vn 0.9500 -0.2310 -0.2102
vn -0.9542 0.2616 0.1451
vn -0.9540 0.2602 0.1488
vt 1.000000 0.500000
vt 0.984375 0.500000
vt 0.984375 1.000000
vt 1.000000 1.000000
vt 0.968750 0.500000
vt 0.968750 1.000000
vt 0.953125 0.500000
vt 0.953125 1.000000
vt 0.937500 0.500000
vt 0.937500 1.000000
vt 0.921875 0.500000
vt 0.921875 1.000000
vt 0.906250 0.500000
vt 0.906250 1.000000
vt 0.890625 0.500000
vt 0.890625 1.000000
vt 0.875000 0.500000
vt 0.875000 1.000000
vt 0.859375 0.500000
vt 0.859375 1.000000
vt 0.843750 0.500000
vt 0.843750 1.000000
vt 0.828125 0.500000
vt 0.828125 1.000000
vt 0.812500 0.500000
vt 0.812500 1.000000
vt 0.796875 0.500000
vt 0.796875 1.000000
vt 0.781250 0.500000
vt 0.781250 1.000000
vt 0.765625 0.500000
vt 0.765625 1.000000
vt 0.750000 0.500000
vt 0.750000 1.000000
vt 0.734375 0.500000
vt 0.734375 1.000000
vt 0.718750 0.500000
vt 0.718750 1.000000
vt 0.703125 0.500000
vt 0.703125 1.000000
vt 0.687500 0.500000
vt 0.687500 1.000000
vt 0.671875 0.500000
vt 0.671875 1.000000
vt 0.656250 0.500000
vt 0.656250 1.000000
vt 0.640625 0.500000
vt 0.640625 1.000000
vt 0.625000 0.500000
vt 0.625000 1.000000
vt 0.609375 0.500000
vt 0.609375 1.000000
vt 0.593750 0.500000
vt 0.593750 1.000000
vt 0.578125 0.500000
vt 0.578125 1.000000
vt 0.562500 0.500000
vt 0.562500 1.000000
vt 0.546875 0.500000
vt 0.546875 1.000000
vt 0.531250 0.500000
vt 0.531250 1.000000
vt 0.515625 0.500000
vt 0.515625 1.000000
vt 0.500000 0.500000
vt 0.500000 1.000000
vt 0.484375 0.500000
vt 0.484375 1.000000
vt 0.468750 0.500000
vt 0.468750 1.000000
vt 0.453125 0.500000
vt 0.453125 1.000000
vt 0.437500 0.500000
vt 0.437500 1.000000
vt 0.421875 0.500000
vt 0.421875 1.000000
vt 0.406250 0.500000
vt 0.406250 1.000000
vt 0.390625 0.500000
vt 0.390625 1.000000
vt 0.375000 0.500000
vt 0.375000 1.000000
vt 0.359375 0.500000
vt 0.359375 1.000000
vt 0.343750 0.500000
vt 0.343750 1.000000
vt 0.328125 0.500000
vt 0.328125 1.000000
vt 0.312500 0.500000
vt 0.312500 1.000000
vt 0.296875 0.500000
vt 0.296875 1.000000
vt 0.281250 0.500000
vt 0.281250 1.000000
vt 0.265625 0.500000
vt 0.265625 1.000000
vt 0.250000 0.500000
vt 0.250000 1.000000
vt 0.234375 0.500000
vt 0.234375 1.000000
vt 0.218750 0.500000
vt 0.218750 1.000000
vt 0.203125 0.500000
vt 0.203125 1.000000
vt 0.187500 0.500000
vt 0.187500 1.000000
vt 0.171875 0.500000
vt 0.171875 1.000000
vt 0.156250 0.500000
vt 0.156250 1.000000
vt 0.140625 0.500000
vt 0.140625 1.000000
vt 0.125000 0.500000
vt 0.125000 1.000000
vt 0.109375 0.500000
vt 0.109375 1.000000
vt 0.093750 0.500000
vt 0.093750 1.000000
vt 0.078125 0.500000
vt 0.078125 1.000000
vt 0.062500 0.500000
vt 0.062500 1.000000
vt 0.046875 0.500000
vt 0.046875 1.000000
vt 0.031250 0.500000
vt 0.031250 1.000000
vt 0.015625 0.500000
vt 0.015625 1.000000
vt 0.000000 0.500000
vt 0.000000 1.000000
s 1
f 1/1/1 3/2/2 4/3/2 2/4/1
f 3/2/2 5/5/3 6/6/3 4/3/2
f 5/5/3 7/7/4 8/8/4 6/6/3
f 7/7/4 9/9/5 10/10/5 8/8/4
f 9/9/5 11/11/6 12/12/6 10/10/5
f 11/11/6 13/13/7 14/14/7 12/12/6
f 13/13/7 15/15/8 16/16/8 14/14/7
f 15/15/8 17/17/9 18/18/9 16/16/8
f 17/17/9 19/19/10 20/20/10 18/18/9
f 19/19/10 21/21/11 22/22/11 20/20/10
f 21/21/11 23/23/12 24/24/12 22/22/11
f 23/23/12 25/25/13 26/26/13 24/24/12
f 25/25/13 27/27/14 28/28/14 26/26/13
f 27/27/14 29/29/15 30/30/15 28/28/14
f 29/29/15 31/31/16 32/32/16 30/30/15
f 31/31/16 33/33/17 34/34/17 32/32/16
f 33/33/17 35/35/18 36/36/18 34/34/17
f 35/35/18 37/37/19 38/38/19 36/36/18
f 37/37/19 39/39/20 40/40/20 38/38/19
f 39/39/20 41/41/21 42/42/21 40/40/20
f 41/41/21 43/43/22 44/44/22 42/42/21
f 43/43/22 45/45/23 46/46/23 44/44/22
f 45/45/23 47/47/24 48/48/24 46/46/23
f 47/47/24 49/49/25 50/50/25 48/48/24
f 49/49/25 51/51/26 52/52/26 50/50/25
f 51/51/26 53/53/27 54/54/27 52/52/26
f 53/53/27 55/55/28 56/56/28 54/54/27
f 55/55/28 57/57/29 58/58/29 56/56/28
f 57/57/29 59/59/30 60/60/30 58/58/29
f 59/59/30 61/61/31 62/62/31 60/60/30
f 61/61/31 63/63/32 64/64/32 62/62/31
f 63/63/32 65/65/33 66/66/33 64/64/32
f 65/65/33 67/67/34 68/68/34 66/66/33
f 67/67/34 69/69/35 70/70/35 68/68/34
f 69/69/35 71/71/36 72/72/36 70/70/35
f 71/71/36 73/73/37 74/74/37 72/72/36
f 73/73/37 75/75/38 76/76/38 74/74/37
f 75/75/38 77/77/39 78/78/39 76/76/38
f 77/77/39 79/79/40 80/80/40 78/78/39
f 79/79/40 81/81/41 82/82/41 80/80/40
f 81/81/41 83/83/42 84/84/42 82/82/41
f 83/83/42 85/85/43 86/86/43 84/84/42
f 85/85/43 87/87/44 88/88/44 86/86/43
f 87/87/44 89/89/45 90/90/45 88/88/44
f 89/89/45 91/91/46 92/92/46 90/90/45
f 91/91/46 93/93/47 94/94/47 92/92/46
f 93/93/47 95/95/48 96/96/48 94/94/47
f 95/95/48 97/97/49 98/98/49 96/96/48
f 97/97/49 99/99/50 100/100/50 98/98/49
f 99/99/50 101/101/51 102/102/51 100/100/50
f 101/101/51 103/103/52 104/104/52 102/102/51
f 103/103/52 105/105/53 106/106/53 104/104/52
f 105/105/53 107/107/54 108/108/54 106/106/53
f 107/107/54 109/109/55 110/110/55 108/108/54
f 109/109/55 111/111/56 112/112/56 110/110/55
f 111/111/56 113/113/57 114/114/57 112/112/56
f 113/113/57 115/115/58 116/116/58 114/114/57
f 115/115/58 117/117/59 118/118/59 116/116/58
f 117/117/59 119/119/60 120/120/60 118/118/59
f 119/119/60 121/121/61 122/122/61 120/120/60
f 121/121/61 123/123/62 124/124/62 122/122/61
f 123/123/62 125/125/63 126/126/63 124/124/62
f 125/125/63 127/127/64 128/128/64 126/126/63
f 127/127/64 1/129/1 2/130/1 128/128/64
f 129/1/33 132/4/33 131/3/34 130/2/34
f 130/2/34 131/3/34 134/6/35 133/5/35
f 133/5/35 134/6/35 136/8/36 135/7/36
f 135/7/36 136/8/36 138/10/37 137/9/37
f 137/9/37 138/10/37 140/12/38 139/11/38
f 139/11/38 140/12/38 142/14/39 141/13/39
f 141/13/39 142/14/39 144/16/40 143/15/40
f 143/15/40 144/16/40 146/18/41 145/17/41
f 145/17/41 146/18/41 148/20/42 147/19/42
f 147/19/42 148/20/42 150/22/43 149/21/43
f 149/21/43 150/22/43 152/24/44 151/23/44
f 151/23/44 152/24/44 154/26/45 153/25/45
f 153/25/45 154/26/45 156/28/46 155/27/46
f 155/27/46 156/28/46 158/30/47 157/29/47
f 157/29/47 158/30/47 160/32/48 159/31/48
f 159/31/48 160/32/48 162/34/49 161/33/49
f 161/33/49 162/34/49 164/36/50 163/35/50
f 163/35/50 164/36/50 166/38/51 165/37/51
f 165/37/51 166/38/51 168/40/52 167/39/52
f 167/39/52 168/40/52 170/42/53 169/41/53
f 169/41/53 170/42/53 172/44/54 171/43/54
f 171/43/54 172/44/54 174/46/55 173/45/65
f 173/45/65 174/46/55 176/48/56 175/47/56
f 175/47/56 176/48/56 178/50/57 177/49/57
f 177/49/57 178/50/57 180/52/58 179/51/58
f 179/51/58 180/52/58 182/54/59 181/53/59
f 181/53/59 182/54/59 184/56/60 183/55/60
f 183/55/60 184/56/60 186/58/61 185/57/61
f 185/57/61 186/58/61 188/60/62 187/59/62
f 187/59/62 188/60/62 190/62/63 189/61/63
f 189/61/63 190/62/63 192/64/64 191/63/64
f 191/63/64 192/64/64 194/66/1 193/65/1
f 193/65/1 194/66/1 196/68/2 195/67/2
f 195/67/2 196/68/2 198/70/3 197/69/3
f 197/69/3 198/70/3 200/72/4 199/71/4
f 199/71/4 200/72/4 202/74/5 201/73/5
f 201/73/5 202/74/5 204/76/6 203/75/6
f 203/75/6 204/76/6 206/78/7 205/77/7
f 205/77/7 206/78/7 208/80/8 207/79/8
f 207/79/8 208/80/8 210/82/9 209/81/9
f 209/81/9 210/82/9 212/84/10 211/83/10
f 211/83/10 212/84/10 214/86/11 213/85/11
f 213/85/11 214/86/11 216/88/12 215/87/12
f 215/87/12 216/88/12 218/90/13 217/89/13
f 217/89/13 218/90/13 220/92/14 219/91/14
f 219/91/14 220/92/14 222/94/15 221/93/15
f 221/93/15 222/94/15 224/96/16 223/95/16
f 223/95/16 224/96/16 226/98/17 225/97/17
f 225/97/17 226/98/17 228/100/18 227/99/18
f 227/99/18 228/100/18 230/102/19 229/101/19
f 229/101/19 230/102/19 232/104/20 231/103/20
f 231/103/20 232/104/20 234/106/21 233/105/21
f 233/105/21 234/106/21 236/108/22 235/107/22
f 235/107/22 236/108/22 238/110/66 237/109/23
f 237/109/23 238/110/66 240/112/24 239/111/24
f 239/111/24 240/112/24 242/114/25 241/113/25
f 241/113/25 242/114/25 244/116/26 243/115/26
f 243/115/26 244/116/26 246/118/27 245/117/27
f 245/117/27 246/118/27 248/120/28 247/119/28
f 247/119/28 248/120/28 250/122/29 249/121/29
f 249/121/29 250/122/29 252/124/30 251/123/30
f 251/123/30 252/124/30 254/126/31 253/125/31
f 253/125/31 254/126/31 256/128/32 255/127/32
f 255/127/32 256/128/32 132/130/33 129/129/33
f 64/64/67 66/66/68 194/66/69 192/64/70
f 30/30/71 32/32/72 160/32/73 158/30/74
f 101/101/75 99/99/76 227/99/77 229/101/78
f 67/67/79 65/65/80 193/65/81 195/67/82
f 33/33/83 31/31/84 159/31/85 161/33/86
f 100/100/87 102/102/88 230/102/89 228/100/90
f 66/66/68 68/68/91 196/68/92 194/66/69
f 32/32/72 34/34/93 162/34/94 160/32/73
f 103/103/95 101/101/75 229/101/78 231/103/96
f 69/69/97 67/67/79 195/67/82 197/69/98
f 35/35/99 33/33/83 161/33/86 163/35/100
f 102/102/88 104/104/101 232/104/102 230/102/89
f 68/68/91 70/70/103 198/70/104 196/68/92
f 34/34/93 36/36/105 164/36/106 162/34/94
f 105/105/107 103/103/95 231/103/96 233/105/108
f 3/2/109 1/1/110 129/1/111 130/2/112
f 71/71/113 69/69/97 197/69/98 199/71/114
f 37/37/115 35/35/99 163/35/100 165/37/116
f 104/104/101 106/106/117 234/106/118 232/104/102
f 2/4/119 4/3/120 131/3/121 132/4/122
f 70/70/103 72/72/123 200/72/124 198/70/104
f 36/36/105 38/38/125 166/38/126 164/36/106
f 107/107/127 105/105/107 233/105/108 235/107/128
f 73/73/129 71/71/113 199/71/114 201/73/130
f 39/39/131 37/37/115 165/37/116 167/39/132
f 106/106/117 108/108/133 236/108/134 234/106/118
f 5/5/135 3/2/109 130/2/112 133/5/136
f 72/72/123 74/74/137 202/74/138 200/72/124
f 38/38/125 40/40/139 168/40/140 166/38/126
f 4/3/120 6/6/141 134/6/142 131/3/121
f 109/109/143 107/107/127 235/107/128 237/109/144
f 75/75/145 73/73/129 201/73/130 203/75/146
f 41/41/147 39/39/131 167/39/132 169/41/148
f 108/108/133 110/110/149 238/110/150 236/108/134
f 7/7/151 5/5/135 133/5/136 135/7/152
f 74/74/137 76/76/153 204/76/154 202/74/138
f 40/40/139 42/42/155 170/42/156 168/40/140
f 6/6/141 8/8/157 136/8/158 134/6/142
f 111/111/159 109/109/143 237/109/144 239/111/160
f 77/77/161 75/75/145 203/75/146 205/77/162
f 43/43/163 41/41/147 169/41/148 171/43/164
f 110/110/149 112/112/165 240/112/166 238/110/150
f 9/9/167 7/7/151 135/7/152 137/9/168
f 76/76/153 78/78/169 206/78/170 204/76/154
f 42/42/155 44/44/171 172/44/172 170/42/156
f 8/8/157 10/10/173 138/10/174 136/8/158
f 113/113/175 111/111/159 239/111/160 241/113/176
f 79/79/177 77/77/161 205/77/162 207/79/178
f 45/45/179 43/43/163 171/43/164 173/45/180
f 112/112/165 114/114/181 242/114/182 240/112/166
f 11/11/183 9/9/167 137/9/168 139/11/184
f 78/78/169 80/80/185 208/80/186 206/78/170
f 44/44/171 46/46/187 174/46/188 172/44/172
f 10/10/173 12/12/189 140/12/190 138/10/174
f 115/115/191 113/113/175 241/113/176 243/115/192
f 81/81/193 79/79/177 207/79/178 209/81/194
f 47/47/195 45/45/179 173/45/180 175/47/196
f 114/114/181 116/116/197 244/116/198 242/114/182
f 13/13/199 11/11/183 139/11/184 141/13/200
f 80/80/185 82/82/201 210/82/202 208/80/186
f 46/46/187 48/48/203 176/48/204 174/46/188
f 12/12/189 14/14/205 142/14/206 140/12/190
f 117/117/207 115/115/191 243/115/192 245/117/208
f 83/83/209 81/81/193 209/81/194 211/83/210
f 49/49/211 47/47/195 175/47/196 177/49/212
f 116/116/197 118/118/213 246/118/214 244/116/198
f 15/15/215 13/13/199 141/13/200 143/15/216
f 82/82/201 84/84/217 212/84/218 210/82/202
f 48/48/203 50/50/219 178/50/220 176/48/204
f 14/14/205 16/16/221 144/16/222 142/14/206
f 119/119/223 117/117/207 245/117/208 247/119/224
f 85/85/225 83/83/209 211/83/210 213/85/226
f 51/51/227 49/49/211 177/49/212 179/51/228
f 118/118/213 120/120/229 248/120/230 246/118/214
f 17/17/231 15/15/215 143/15/216 145/17/232
f 84/84/217 86/86/233 214/86/234 212/84/218
f 50/50/219 52/52/235 180/52/236 178/50/220
f 16/16/221 18/18/237 146/18/238 144/16/222
f 121/121/239 119/119/223 247/119/224 249/121/240
f 87/87/241 85/85/225 213/85/226 215/87/242
f 53/53/243 51/51/227 179/51/228 181/53/244
f 120/120/229 122/122/245 250/122/246 248/120/230
f 19/19/247 17/17/231 145/17/232 147/19/248
f 86/86/233 88/88/249 216/88/250 214/86/234
f 52/52/235 54/54/251 182/54/252 180/52/236
f 18/18/237 20/20/253 148/20/254 146/18/238
f 123/123/255 121/121/239 249/121/240 251/123/256
f 89/89/257 87/87/241 215/87/242 217/89/258
f 55/55/259 53/53/243 181/53/244 183/55/260
f 122/122/245 124/124/261 252/124/262 250/122/246
f 21/21/263 19/19/247 147/19/248 149/21/264
f 88/88/249 90/90/265 218/90/266 216/88/250
f 54/54/251 56/56/267 184/56/268 182/54/252
f 20/20/253 22/22/269 150/22/270 148/20/254
f 125/125/271 123/123/255 251/123/256 253/125/272
f 91/91/273 89/89/257 217/89/258 219/91/274
f 57/57/275 55/55/259 183/55/260 185/57/276
f 124/124/261 126/126/277 254/126/278 252/124/262
f 23/23/279 21/21/263 149/21/264 151/23/280
f 90/90/265 92/92/281 220/92/282 218/90/266
f 56/56/267 58/58/283 186/58/284 184/56/268
f 22/22/269 24/24/285 152/24/286 150/22/270
f 127/127/287 125/125/271 253/125/272 255/127/288
f 93/93/289 91/91/273 219/91/274 221/93/290
f 59/59/291 57/57/275 185/57/276 187/59/292
f 126/126/277 128/128/293 256/128/294 254/126/278
f 25/25/295 23/23/279 151/23/280 153/25/296
f 92/92/281 94/94/297 222/94/298 220/92/282
f 58/58/283 60/60/299 188/60/300 186/58/284
f 24/24/285 26/26/301 154/26/302 152/24/286
f 1/129/110 127/127/287 255/127/288 129/129/111
f 95/95/303 93/93/289 221/93/290 223/95/304
f 61/61/305 59/59/291 187/59/292 189/61/306
f 128/128/293 2/130/119 132/130/122 256/128/294
f 27/27/307 25/25/295 153/25/296 155/27/308
f 94/94/297 96/96/309 224/96/310 222/94/298
f 60/60/299 62/62/311 190/62/312 188/60/300
f 26/26/301 28/28/313 156/28/314 154/26/302
f 97/97/315 95/95/303 223/95/304 225/97/316
f 63/63/317 61/61/305 189/61/306 191/63/318
f 29/29/319 27/27/307 155/27/308 157/29/320
f 96/96/309 98/98/321 226/98/322 224/96/310
f 62/62/311 64/64/67 192/64/70 190/62/312
f 28/28/313 30/30/71 158/30/74 156/28/314
f 99/99/76 97/97/315 225/97/316 227/99/77
f 65/65/80 63/63/317 191/63/318 193/65/81
f 31/31/84 29/29/319 157/29/320 159/31/85
f 98/98/321 100/100/87 228/100/90 226/98/322
