# Blender 4.4.3
# www.blender.org
mtllib EHOIRJSCOPCCU.mtl
o Cube
v 2.073772 -0.134950 1.296189
v 2.073772 0.134948 1.112670
v 2.073772 0.134948 0.909538
v 2.073772 0.404847 0.737947
v 2.073772 0.404847 0.534816
v 2.073772 0.674745 0.363224
v 2.073772 0.674745 0.160093
v 2.073772 0.944643 -0.011498
v 2.073772 0.944643 -0.214630
v 2.073772 1.214542 -0.386221
v 2.073772 1.214542 -0.589352
v 2.073772 1.484440 -0.760944
v 2.073772 1.484440 -0.964075
v 2.073772 1.754338 -1.135666
v 2.073772 1.754338 -1.338798
v 2.073772 2.024237 -1.510389
v 2.073772 2.024237 -1.713520
v 2.073772 2.294135 -1.885111
v 2.073772 2.294135 -2.088243
v 2.073772 2.564033 -2.259834
v 2.073772 2.564033 -2.462966
v 2.073772 2.833931 -2.634557
v 2.073772 2.833931 -2.837688
v 2.073772 3.103830 -3.009279
v 2.073772 3.103830 -3.212410
v 2.073772 3.373728 -3.384002
v 2.073772 3.373728 -3.587134
v 2.073772 3.643626 -3.758725
v 2.073772 3.643626 -3.961855
v 2.073772 3.913525 -4.133447
v 2.073772 3.913525 -4.336578
v 2.073772 4.183423 -4.508170
v 2.073772 4.183423 -4.711301
v 2.073772 4.453321 -4.882893
v 2.073772 4.453321 -5.086024
v 2.073772 4.723219 -5.257616
v 2.073772 4.723219 -5.460746
v 2.073772 4.993117 -5.632338
v 2.073772 4.993117 -5.835469
v 2.073772 5.263017 -6.007060
v 2.073772 5.263017 -6.210191
v 2.073772 5.532915 -6.381783
v 2.073772 5.532915 -6.584914
v 2.073772 5.802813 -6.756505
v 2.073772 5.802813 -6.959637
v 2.073772 6.072711 -7.131229
v 2.073772 6.072711 -7.351214
v -2.008069 -0.134950 1.296189
v -2.008069 0.134948 1.112670
v -2.008069 0.134948 0.909538
v -2.008069 0.404847 0.737947
v -2.008069 0.404847 0.534816
v -2.008069 0.674745 0.363224
v -2.008069 0.674745 0.160093
v -2.008069 0.944643 -0.011498
v -2.008069 0.944643 -0.214630
v -2.008069 1.214542 -0.386221
v -2.008069 1.214542 -0.589352
v -2.008069 1.484440 -0.760944
v -2.008069 1.484440 -0.964075
v -2.008069 1.754338 -1.135666
v -2.008069 1.754338 -1.338798
v -2.008069 2.024237 -1.510389
v -2.008069 2.024237 -1.713520
v -2.008069 2.294135 -1.885111
v -2.008069 2.294135 -2.088243
v -2.008069 2.564033 -2.259834
v -2.008069 2.564033 -2.462966
v -2.008069 2.833931 -2.634557
v -2.008069 2.833931 -2.837688
v -2.008069 3.103830 -3.009279
v -2.008069 3.103830 -3.212410
v -2.008069 3.373728 -3.384002
v -2.008069 3.373728 -3.587134
v -2.008069 3.643626 -3.758725
v -2.008069 3.643626 -3.961855
v -2.008069 3.913525 -4.133447
v -2.008069 3.913525 -4.336578
v -2.008069 4.183423 -4.508170
v -2.008069 4.183423 -4.711301
v -2.008069 4.453321 -4.882893
v -2.008069 4.453321 -5.086024
v -2.008069 4.723219 -5.257616
v -2.008069 4.723219 -5.460746
v -2.008069 4.993117 -5.632338
v -2.008069 4.993117 -5.835469
v -2.008069 5.263017 -6.007060
v -2.008069 5.263017 -6.210191
v -2.008069 5.532915 -6.381783
v -2.008069 5.532915 -6.584914
v -2.008069 5.802813 -6.756505
v -2.008069 5.802813 -6.959637
v -2.008069 6.072711 -7.131229
v -2.008069 6.072711 -7.351214
v 2.073773 -0.134253 1.112671
v 2.073773 -0.134253 0.909540
v 2.073773 -0.133469 0.737949
v 2.073773 -0.133469 0.534817
v 2.073773 -0.132685 0.363225
v 2.073773 -0.132685 0.160094
v 2.073773 -0.131902 -0.011498
v 2.073773 -0.131902 -0.214629
v 2.073773 -0.131118 -0.386220
v 2.073773 -0.131118 -0.589352
v 2.073773 -0.130334 -0.760943
v 2.073773 -0.130334 -0.964074
v 2.073773 -0.129550 -1.135666
v 2.073773 -0.129550 -1.338797
v 2.073773 -0.128766 -1.510388
v 2.073773 -0.128766 -1.713519
v 2.073773 -0.127982 -1.885111
v 2.073773 -0.127982 -2.088243
v 2.073773 -0.127198 -2.259834
v 2.073773 -0.127198 -2.462966
v 2.073773 -0.126415 -2.634557
v 2.073773 -0.126415 -2.837688
v 2.073773 -0.125631 -3.009279
v 2.073773 -0.125631 -3.212410
v 2.073773 -0.124847 -3.384002
v 2.073773 -0.124847 -3.587134
v 2.073773 -0.124063 -3.758725
v 2.073773 -0.124063 -3.961855
v 2.073773 -0.123279 -4.133447
v 2.073773 -0.123279 -4.336578
v 2.073773 -0.122495 -4.508170
v 2.073773 -0.122495 -4.711301
v 2.073773 -0.121711 -4.882893
v 2.073773 -0.121711 -5.086024
v 2.073773 -0.120928 -5.257616
v 2.073773 -0.120928 -5.460746
v 2.073773 -0.120144 -5.632338
v 2.073773 -0.120144 -5.835469
v 2.073773 -0.119360 -6.007060
v 2.073773 -0.119360 -6.210191
v 2.073773 -0.118576 -6.381783
v 2.073773 -0.118576 -6.584914
v 2.073773 -0.117792 -6.756506
v 2.073773 -0.117792 -6.959639
v 2.073773 -0.117008 -7.131230
v 2.073773 -0.117008 -7.351216
v -2.008069 -0.134253 1.112671
v -2.008069 -0.134253 0.909540
v -2.008069 -0.133469 0.737949
v -2.008069 -0.133469 0.534817
v -2.008069 -0.132685 0.363225
v -2.008069 -0.132685 0.160094
v -2.008069 -0.131902 -0.011498
v -2.008069 -0.131902 -0.214629
v -2.008069 -0.131118 -0.386220
v -2.008069 -0.131118 -0.589352
v -2.008069 -0.130334 -0.760943
v -2.008069 -0.130334 -0.964074
v -2.008069 -0.129550 -1.135666
v -2.008069 -0.129550 -1.338797
v -2.008069 -0.128766 -1.510388
v -2.008069 -0.128766 -1.713519
v -2.008069 -0.127982 -1.885111
v -2.008069 -0.127982 -2.088243
v -2.008069 -0.127198 -2.259834
v -2.008069 -0.127198 -2.462966
v -2.008069 -0.126415 -2.634557
v -2.008069 -0.126415 -2.837688
v -2.008069 -0.125631 -3.009279
v -2.008069 -0.125631 -3.212410
v -2.008069 -0.124847 -3.384002
v -2.008069 -0.124847 -3.587134
v -2.008069 -0.124063 -3.758725
v -2.008069 -0.124063 -3.961855
v -2.008069 -0.123279 -4.133447
v -2.008069 -0.123279 -4.336578
v -2.008069 -0.122495 -4.508170
v -2.008069 -0.122495 -4.711301
v -2.008069 -0.121711 -4.882893
v -2.008069 -0.121711 -5.086024
v -2.008069 -0.120928 -5.257616
v -2.008069 -0.120928 -5.460746
v -2.008069 -0.120144 -5.632338
v -2.008069 -0.120144 -5.835469
v -2.008069 -0.119360 -6.007060
v -2.008069 -0.119360 -6.210191
v -2.008069 -0.118576 -6.381783
v -2.008069 -0.118576 -6.584914
v -2.008069 -0.117792 -6.756506
v -2.008069 -0.117792 -6.959639
v -2.008069 -0.117008 -7.131230
v -2.008069 -0.117008 -7.351216
vn -0.0000 -1.0000 -0.0000
vn -0.0000 -0.5365 -0.8439
vn -0.0000 -0.5623 -0.8269
vn 1.0000 -0.0000 -0.0000
vn -1.0000 -0.0000 -0.0000
vn -0.0000 1.0000 0.0038
vn -0.0000 1.0000 -0.0000
vn -0.0000 1.0000 0.0046
vn -0.0000 -0.0000 1.0000
vt 0.625000 0.750000
vt 0.625000 0.500000
vt 0.000000 0.000000
vt 0.375000 0.750000
s 0
f 46/1/1 93/1/1 94/2/1 47/2/1
f 41/3/2 88/3/2 89/3/2 42/3/2
f 45/4/2 92/4/2 93/1/2 46/1/2
f 42/3/1 89/3/1 90/3/1 43/3/1
f 37/3/2 84/3/2 85/3/2 38/3/2
f 38/3/1 85/3/1 86/3/1 39/3/1
f 33/3/2 80/3/2 81/3/2 34/3/2
f 34/3/1 81/3/1 82/3/1 35/3/1
f 30/3/1 77/3/1 78/3/1 31/3/1
f 28/3/1 75/3/1 76/3/1 29/3/1
f 25/3/2 72/3/2 73/3/2 26/3/2
f 26/3/1 73/3/1 74/3/1 27/3/1
f 44/3/1 91/3/1 92/3/1 45/4/1
f 40/3/1 87/3/1 88/3/1 41/3/1
f 43/3/2 90/3/2 91/3/2 44/3/2
f 39/3/2 86/3/2 87/3/2 40/3/2
f 36/3/1 83/3/1 84/3/1 37/3/1
f 35/3/2 82/3/2 83/3/2 36/3/2
f 32/3/1 79/3/1 80/3/1 33/3/1
f 31/3/2 78/3/2 79/3/2 32/3/2
f 29/3/2 76/3/2 77/3/2 30/3/2
f 27/3/2 74/3/2 75/3/2 28/3/2
f 24/1/1 71/1/1 72/2/1 25/3/1
f 23/4/2 70/4/2 71/1/2 24/1/2
f 22/3/1 69/3/1 70/3/1 23/4/1
f 21/3/2 68/3/2 69/3/2 22/3/2
f 20/3/1 67/3/1 68/3/1 21/3/1
f 19/3/2 66/3/2 67/3/2 20/3/2
f 18/3/1 65/3/1 66/3/1 19/3/1
f 17/3/2 64/3/2 65/3/2 18/3/2
f 16/3/1 63/3/1 64/3/1 17/3/1
f 15/3/2 62/3/2 63/3/2 16/3/2
f 14/3/1 61/3/1 62/3/1 15/3/1
f 13/3/2 60/3/2 61/3/2 14/3/2
f 12/3/1 59/3/1 60/3/1 13/3/1
f 11/3/2 58/3/2 59/3/2 12/3/2
f 10/3/1 57/3/1 58/3/1 11/3/1
f 9/3/2 56/3/2 57/3/2 10/3/2
f 8/3/1 55/3/1 56/3/1 9/3/1
f 7/3/2 54/3/2 55/3/2 8/3/2
f 6/3/1 53/3/1 54/3/1 7/3/1
f 5/3/2 52/3/2 53/3/2 6/3/2
f 4/3/1 51/3/1 52/3/1 5/3/1
f 3/3/2 50/3/2 51/3/2 4/3/2
f 2/3/1 49/3/1 50/3/1 3/3/1
f 1/3/3 48/3/3 49/3/3 2/3/3
f 57/3/4 56/3/4 148/3/4 149/3/4
f 41/3/5 42/3/5 135/3/5 134/3/5
f 52/3/4 51/3/4 143/3/4 144/3/4
f 44/3/5 45/4/5 138/4/5 137/3/5
f 60/3/4 59/3/4 151/3/4 152/3/4
f 51/3/4 50/3/4 142/3/4 143/3/4
f 43/3/5 44/3/5 137/3/5 136/3/5
f 94/2/4 93/1/4 185/1/4 186/2/4
f 59/3/4 58/3/4 150/3/4 151/3/4
f 56/3/4 55/3/4 147/3/4 148/3/4
f 2/3/5 3/3/5 96/3/5 95/3/5
f 93/1/4 92/4/4 184/4/4 185/1/4
f 62/3/4 61/3/4 153/3/4 154/3/4
f 55/3/4 54/3/4 146/3/4 147/3/4
f 6/3/5 7/3/5 100/3/5 99/3/5
f 64/3/4 63/3/4 155/3/4 156/3/4
f 58/3/4 57/3/4 149/3/4 150/3/4
f 5/3/5 6/3/5 99/3/5 98/3/5
f 67/3/4 66/3/4 158/3/4 159/3/4
f 61/3/4 60/3/4 152/3/4 153/3/4
f 9/3/5 10/3/5 103/3/5 102/3/5
f 63/3/4 62/3/4 154/3/4 155/3/4
f 12/3/5 13/3/5 106/3/5 105/3/5
f 4/3/5 5/3/5 98/3/5 97/3/5
f 69/3/4 68/3/4 160/3/4 161/3/4
f 66/3/4 65/3/4 157/3/4 158/3/4
f 11/3/5 12/3/5 105/3/5 104/3/5
f 3/3/5 4/3/5 97/3/5 96/3/5
f 65/3/4 64/3/4 156/3/4 157/3/4
f 14/3/5 15/3/5 108/3/5 107/3/5
f 8/3/5 9/3/5 102/3/5 101/3/5
f 71/1/4 70/4/4 162/4/4 163/1/4
f 68/3/4 67/3/4 159/3/4 160/3/4
f 16/3/5 17/3/5 110/3/5 109/3/5
f 7/3/5 8/3/5 101/3/5 100/3/5
f 73/3/4 72/3/4 164/3/4 165/3/4
f 70/3/4 69/3/4 161/3/4 162/3/4
f 19/3/5 20/3/5 113/3/5 112/3/5
f 10/3/5 11/3/5 104/3/5 103/3/5
f 72/2/4 71/1/4 163/1/4 164/2/4
f 21/3/5 22/3/5 115/3/5 114/3/5
f 13/3/5 14/3/5 107/3/5 106/3/5
f 76/3/4 75/3/4 167/3/4 168/3/4
f 74/3/4 73/3/4 165/3/4 166/3/4
f 23/4/5 24/1/5 117/1/5 116/4/5
f 15/3/5 16/3/5 109/3/5 108/3/5
f 75/3/4 74/3/4 166/3/4 167/3/4
f 77/3/4 76/3/4 168/3/4 169/3/4
f 25/3/5 26/3/5 119/3/5 118/3/5
f 18/3/5 19/3/5 112/3/5 111/3/5
f 80/3/4 79/3/4 171/3/4 172/3/4
f 28/3/5 29/3/5 122/3/5 121/3/5
f 17/3/5 18/3/5 111/3/5 110/3/5
f 78/3/4 77/3/4 169/3/4 170/3/4
f 79/3/4 78/3/4 170/3/4 171/3/4
f 27/3/5 28/3/5 121/3/5 120/3/5
f 20/3/5 21/3/5 114/3/5 113/3/5
f 83/3/4 82/3/4 174/3/4 175/3/4
f 30/3/5 31/3/5 124/3/5 123/3/5
f 22/3/5 23/4/5 116/4/5 115/3/5
f 82/3/4 81/3/4 173/3/4 174/3/4
f 86/3/4 85/3/4 177/3/4 178/3/4
f 34/3/5 35/3/5 128/3/5 127/3/5
f 24/1/5 25/3/5 118/3/5 117/1/5
f 81/3/4 80/3/4 172/3/4 173/3/4
f 85/3/4 84/3/4 176/3/4 177/3/4
f 33/3/5 34/3/5 127/3/5 126/3/5
f 26/3/5 27/3/5 120/3/5 119/3/5
f 84/3/4 83/3/4 175/3/4 176/3/4
f 89/3/4 88/3/4 180/3/4 181/3/4
f 36/3/5 37/3/5 130/3/5 129/3/5
f 29/3/5 30/3/5 123/3/5 122/3/5
f 92/3/4 91/3/4 183/3/4 184/3/4
f 40/3/5 41/3/5 134/3/5 133/3/5
f 32/3/5 33/3/5 126/3/5 125/3/5
f 91/3/4 90/3/4 182/3/4 183/3/4
f 39/3/5 40/3/5 133/3/5 132/3/5
f 31/3/5 32/3/5 125/3/5 124/3/5
f 88/3/4 87/3/4 179/3/4 180/3/4
f 50/3/4 49/3/4 141/3/4 142/3/4
f 42/3/5 43/3/5 136/3/5 135/3/5
f 35/3/5 36/3/5 129/3/5 128/3/5
f 87/3/4 86/3/4 178/3/4 179/3/4
f 54/3/4 53/3/4 145/3/4 146/3/4
f 46/1/5 47/2/5 140/2/5 139/1/5
f 38/3/5 39/3/5 132/3/5 131/3/5
f 53/3/4 52/3/4 144/3/4 145/3/4
f 45/4/5 46/1/5 139/1/5 138/4/5
f 37/3/5 38/3/5 131/3/5 130/3/5
f 90/3/4 89/3/4 181/3/4 182/3/4
f 2/3/5 95/3/5 1/3/5
f 48/3/4 141/3/4 49/3/4
f 48/3/6 1/3/6 95/3/6 141/3/6
f 95/3/7 96/3/7 142/3/7 141/3/7
f 96/3/8 97/3/8 143/3/8 142/3/8
f 97/3/7 98/3/7 144/3/7 143/3/7
f 98/3/8 99/3/8 145/3/8 144/3/8
f 99/3/7 100/3/7 146/3/7 145/3/7
f 100/3/8 101/3/8 147/3/8 146/3/8
f 101/3/7 102/3/7 148/3/7 147/3/7
f 102/3/8 103/3/8 149/3/8 148/3/8
f 103/3/7 104/3/7 150/3/7 149/3/7
f 104/3/8 105/3/8 151/3/8 150/3/8
f 105/3/7 106/3/7 152/3/7 151/3/7
f 106/3/8 107/3/8 153/3/8 152/3/8
f 107/3/7 108/3/7 154/3/7 153/3/7
f 108/3/8 109/3/8 155/3/8 154/3/8
f 109/3/7 110/3/7 156/3/7 155/3/7
f 110/3/8 111/3/8 157/3/8 156/3/8
f 111/3/7 112/3/7 158/3/7 157/3/7
f 112/3/8 113/3/8 159/3/8 158/3/8
f 113/3/7 114/3/7 160/3/7 159/3/7
f 114/3/8 115/3/8 161/3/8 160/3/8
f 115/3/7 116/4/7 162/3/7 161/3/7
f 116/4/8 117/1/8 163/1/8 162/3/8
f 117/1/7 118/3/7 164/2/7 163/1/7
f 118/3/8 119/3/8 165/3/8 164/2/8
f 119/3/7 120/3/7 166/3/7 165/3/7
f 120/3/8 121/3/8 167/3/8 166/3/8
f 121/3/7 122/3/7 168/3/7 167/3/7
f 122/3/8 123/3/8 169/3/8 168/3/8
f 123/3/7 124/3/7 170/3/7 169/3/7
f 124/3/8 125/3/8 171/3/8 170/3/8
f 125/3/7 126/3/7 172/3/7 171/3/7
f 126/3/8 127/3/8 173/3/8 172/3/8
f 127/3/7 128/3/7 174/3/7 173/3/7
f 128/3/8 129/3/8 175/3/8 174/3/8
f 129/3/7 130/3/7 176/3/7 175/3/7
f 130/3/8 131/3/8 177/3/8 176/3/8
f 131/3/7 132/3/7 178/3/7 177/3/7
f 132/3/8 133/3/8 179/3/8 178/3/8
f 133/3/7 134/3/7 180/3/7 179/3/7
f 134/3/8 135/3/8 181/3/8 180/3/8
f 135/3/7 136/3/7 182/3/7 181/3/7
f 136/3/8 137/3/8 183/3/8 182/3/8
f 137/3/7 138/4/7 184/3/7 183/3/7
f 138/4/8 139/1/8 185/1/8 184/3/8
f 139/1/7 140/2/7 186/2/7 185/1/7
f 94/2/9 186/2/9 140/2/9 47/2/9
